<svg width="48" height="48" viewBox="0 0 48 48" fill="none" xmlns="http://www.w3.org/2000/svg">
<path d="M24 12H24.02M12 4H36C38.2091 4 40 5.79086 40 8V40C40 42.2091 38.2091 44 36 44H12C9.79086 44 8 42.2091 8 40V8C8 5.79086 9.79086 4 12 4ZM32 28C32 32.4183 28.4183 36 24 36C19.5817 36 16 32.4183 16 28C16 23.5817 19.5817 20 24 20C28.4183 20 32 23.5817 32 28Z" stroke="url(#paint0_linear_71_325)" stroke-width="4" stroke-linecap="round" stroke-linejoin="round"/>
<defs>
<linearGradient id="paint0_linear_71_325" x1="24" y1="4" x2="24" y2="44" gradientUnits="userSpaceOnUse">
<stop stop-color="#BF9440"/>
<stop offset="0.504808" stop-color="#D3B15F"/>
<stop offset="1" stop-color="#B78934"/>
</linearGradient>
</defs>
</svg>
