<svg width="48" height="48" viewBox="0 0 48 48" fill="none" xmlns="http://www.w3.org/2000/svg">
<g clip-path="url(#clip0_71_356)">
<path d="M32 42V38C32 35.8783 31.1571 33.8434 29.6569 32.3431C28.1566 30.8429 26.1217 30 24 30H10C7.87827 30 5.84344 30.8429 4.34315 32.3431C2.84285 33.8434 2 35.8783 2 38V42M40 16V28M46 22H34M25 14C25 18.4183 21.4183 22 17 22C12.5817 22 9 18.4183 9 14C9 9.58172 12.5817 6 17 6C21.4183 6 25 9.58172 25 14Z" stroke="url(#paint0_linear_71_356)" stroke-width="4" stroke-linecap="round" stroke-linejoin="round"/>
</g>
<defs>
<linearGradient id="paint0_linear_71_356" x1="24" y1="6" x2="24" y2="42" gradientUnits="userSpaceOnUse">
<stop stop-color="#BF9440"/>
<stop offset="0.504808" stop-color="#D3B15E"/>
<stop offset="1" stop-color="#B88B36"/>
</linearGradient>
<clipPath id="clip0_71_356">
<rect width="48" height="48" fill="white"/>
</clipPath>
</defs>
</svg>
